<svg width="23" height="28" viewBox="0 0 23 28" fill="currentColor" xmlns="http://www.w3.org/2000/svg">
  <path d="M21.4221 9.37737C21.2246 7.44633 20.9099 5.94282 20.4121 5.35184C18.3597 2.92194 3.9826 2.74411 2.35024 5.35184C1.95094 5.99073 1.67089 7.48892 1.48295 9.38057C1.1865 9.41462 0.912867 9.55635 0.714021 9.77885C0.515174 10.0014 0.404957 10.2891 0.404297 10.5875V12.953C0.404669 13.2023 0.48142 13.4454 0.624209 13.6497C0.766999 13.854 0.968967 14.0096 1.20291 14.0956C1.0927 17.8213 1.18214 21.7084 1.34719 23.6416C1.34719 25.134 2.34971 24.8864 2.34971 24.8864H3.28941V26.4974C3.28941 27.1363 3.948 27.6533 4.75939 27.6533C5.57184 27.6533 6.23043 27.1363 6.23043 26.4974V24.8864H17.1629V26.4974C17.1629 27.1363 17.8209 27.6533 18.6334 27.6533C19.4448 27.6533 20.1034 27.1363 20.1034 26.4974V24.8864H20.4121C20.4121 24.8864 21.592 25.0482 21.6676 24.3455C21.6676 22.4176 21.789 18.145 21.6889 14.1121C21.9365 14.0355 22.1532 13.8817 22.3072 13.6732C22.4611 13.4646 22.5443 13.2122 22.5444 12.953V10.5875C22.5439 10.2816 22.428 9.98718 22.22 9.76289C22.012 9.5386 21.7271 9.40094 21.4221 9.37737ZM5.86147 5.69844H16.9009V7.3686H5.86147V5.69844ZM6.01906 22.9841C5.60286 22.9841 5.20371 22.8188 4.90942 22.5245C4.61512 22.2302 4.44979 21.831 4.44979 21.4148C4.44979 20.9986 4.61512 20.5995 4.90942 20.3052C5.20371 20.0109 5.60286 19.8456 6.01906 19.8456C6.43526 19.8456 6.83441 20.0109 7.1287 20.3052C7.423 20.5995 7.58833 20.9986 7.58833 21.4148C7.58833 21.831 7.423 22.2302 7.1287 22.5245C6.83441 22.8188 6.43526 22.9841 6.01906 22.9841ZM16.8418 22.9841C16.631 22.9919 16.4207 22.9572 16.2236 22.8819C16.0265 22.8067 15.8466 22.6925 15.6947 22.5461C15.5427 22.3997 15.4218 22.2242 15.3392 22.0301C15.2566 21.836 15.214 21.6272 15.214 21.4162C15.2139 21.2052 15.2564 20.9964 15.3388 20.8022C15.4213 20.608 15.542 20.4324 15.6939 20.2859C15.8458 20.1395 16.0256 20.0251 16.2226 19.9497C16.4197 19.8743 16.6299 19.8395 16.8408 19.8472C17.2467 19.862 17.6312 20.0336 17.9132 20.3261C18.1952 20.6185 18.3529 21.0089 18.353 21.4151C18.3532 21.8214 18.1958 22.2119 17.9139 22.5045C17.6321 22.7971 17.2478 22.969 16.8418 22.9841ZM18.8368 16.116H3.92564V8.29499H18.8368V16.116Z" />
  <path d="M9.08853 1.92387H9.52353C10.0532 1.92387 10.4831 1.51583 10.4831 1.01307C10.4831 0.510305 10.0532 0.102264 9.52353 0.102264H8.49551C8.13216 0.102264 7.80015 0.297177 7.63766 0.605636L5.7793 4.13409H7.92425L9.08853 1.92387Z" />
  <path d="M17.8235 1.92387H18.2579C18.7882 1.92387 19.2175 1.51583 19.2175 1.01307C19.2175 0.510305 18.7882 0.102264 18.2579 0.102264H17.2305C16.8672 0.102264 16.5345 0.297177 16.372 0.605636L14.5137 4.13409H16.6593L17.8235 1.92387Z" />
  <path d="M1.52344 7.7551C1.52344 5.64177 3.23663 3.92857 5.34997 3.92857H17.5949C19.7082 3.92857 21.4214 5.64177 21.4214 7.7551V9.28572H1.52344V7.7551Z" />
</svg>
