<svg width="28" height="25" viewBox="0 0 28 25" fill="currentColor" xmlns="http://www.w3.org/2000/svg">
  <path d="M16.3757 1.96899C16.3757 1.20069 15.7507 0.575623 14.9824 0.575623H12.9032C12.1349 0.575623 11.5098 1.20069 11.5098 1.96899V4.05216H16.3757V1.96899ZM14.1469 9.29294L22.2236 11.4033V6.19501C22.2236 5.90357 21.9865 5.66648 21.695 5.66648H6.19064C5.8992 5.66648 5.66211 5.90357 5.66211 6.19501V11.4033L13.7388 9.29294C13.8726 9.25801 14.0131 9.25801 14.1469 9.29294Z" />
  <path d="M26.9118 23.0389C26.0209 23.0389 25.6191 22.8388 25.1103 22.5854C24.8714 22.4665 24.6195 22.341 24.3189 22.2342C23.9016 22.0859 23.3902 21.9734 22.6894 21.9635L25.6447 14.524C25.7101 14.3474 25.6578 14.2003 25.6205 14.128C25.583 14.0552 25.4924 13.9258 25.3077 13.8775L13.9434 10.9082L2.57922 13.8775C2.39444 13.9258 2.30387 14.0552 2.26637 14.128C2.22908 14.2004 2.17672 14.3476 2.24231 14.5243L5.19097 21.9636C4.49047 21.9742 3.97959 22.0874 3.56256 22.2363C3.2645 22.3427 3.01423 22.4672 2.77687 22.5854C2.26798 22.8388 1.86607 23.039 0.975128 23.039C0.529361 23.039 0.167969 23.4004 0.167969 23.8461C0.167969 24.2919 0.529361 24.6533 0.975128 24.6533C2.2457 24.6533 2.91016 24.3225 3.49637 24.0306C3.72479 23.9169 3.93191 23.8141 4.1711 23.7351C4.46485 23.6381 4.80703 23.5771 5.29811 23.5771C5.4102 23.5771 5.51448 23.5803 5.61231 23.5864C6.29183 23.6283 6.655 23.8092 7.09985 24.0306C7.68606 24.3225 8.35051 24.6533 9.62109 24.6533C10.8916 24.6533 11.556 24.3225 12.1423 24.0306C12.6511 23.7773 13.053 23.5771 13.9439 23.5771C14.8347 23.5771 15.2365 23.7772 15.7454 24.0306C16.3316 24.3225 16.996 24.6533 18.2665 24.6533C19.537 24.6533 20.2014 24.3225 20.7876 24.0306C21.2339 23.8085 21.598 23.6273 22.2816 23.586C22.3841 23.58 22.4866 23.577 22.5892 23.5771C23.0749 23.5771 23.4149 23.6369 23.7064 23.7321C23.9497 23.8115 24.1594 23.9154 24.3907 24.0306C24.977 24.3225 25.6414 24.6533 26.9119 24.6533C27.3577 24.6533 27.719 24.2919 27.719 23.8462C27.719 23.4004 27.3575 23.0389 26.9118 23.0389ZM6.48113 15.0389L13.7394 13.1424C13.8732 13.1075 14.0137 13.1075 14.1475 13.1424L21.4057 15.0389C21.837 15.1516 22.0953 15.5926 21.9826 16.0239C21.8878 16.3868 21.5605 16.6272 21.2023 16.6272C21.1332 16.6272 21.0645 16.6183 20.9977 16.6008L13.9434 14.7576L6.88923 16.6008C6.45794 16.7135 6.01691 16.4552 5.90423 16.0239C5.79155 15.5926 6.04984 15.1516 6.48113 15.0389Z" />
</svg>
