<svg width="26" height="28" viewBox="0 0 26 28" fill="currentColor" xmlns="http://www.w3.org/2000/svg">
  <path d="M24.193 6.83886C23.968 4.6396 23.6097 2.92725 23.0427 2.25419C20.7052 -0.513217 4.33118 -0.71574 2.47209 2.25419C2.01732 2.98182 1.69838 4.68811 1.48434 6.84249C1.1467 6.88128 0.835068 7.0427 0.608603 7.2961C0.382137 7.54951 0.256611 7.87725 0.255859 8.21711V10.9111C0.256283 11.195 0.343694 11.4719 0.506317 11.7046C0.668939 11.9372 0.898961 12.1145 1.16539 12.2124C1.03988 16.4557 1.14175 20.8827 1.32972 23.0844C1.32972 24.784 2.47149 24.502 2.47149 24.502H3.54171V26.3369C3.54171 27.0645 4.29177 27.6533 5.21586 27.6533C6.14116 27.6533 6.89122 27.0645 6.89122 26.3369V24.502H19.3421V26.3369C19.3421 27.0645 20.0916 27.6533 21.0169 27.6533C21.941 27.6533 22.691 27.0645 22.691 26.3369V24.502H23.0427C23.0427 24.502 24.3864 24.6864 24.4725 23.886C24.4725 21.6903 24.6108 16.8243 24.4968 12.2312C24.7789 12.144 25.0256 11.9689 25.201 11.7313C25.3763 11.4938 25.471 11.2064 25.4712 10.9111V8.21711C25.4706 7.86872 25.3386 7.53337 25.1017 7.27792C24.8648 7.02248 24.5403 6.8657 24.193 6.83886ZM6.47101 2.64893H19.0438V4.55107H6.47101V2.64893ZM6.6505 22.3355C6.17649 22.3355 5.7219 22.1472 5.38673 21.812C5.05156 21.4769 4.86326 21.0223 4.86326 20.5483C4.86326 20.0743 5.05156 19.6197 5.38673 19.2845C5.7219 18.9493 6.17649 18.761 6.6505 18.761C7.1245 18.761 7.57909 18.9493 7.91426 19.2845C8.24943 19.6197 8.43773 20.0743 8.43773 20.5483C8.43773 21.0223 8.24943 21.4769 7.91426 21.812C7.57909 22.1472 7.1245 22.3355 6.6505 22.3355ZM18.9765 22.3355C18.7364 22.3444 18.4969 22.3049 18.2725 22.2192C18.048 22.1335 17.8431 22.0034 17.67 21.8367C17.497 21.67 17.3593 21.4701 17.2652 21.249C17.1711 21.0279 17.1226 20.7901 17.1225 20.5498C17.1225 20.3095 17.1708 20.0717 17.2647 19.8505C17.3587 19.6294 17.4962 19.4294 17.6691 19.2626C17.8421 19.0958 18.0469 18.9655 18.2713 18.8797C18.4957 18.7938 18.7352 18.7541 18.9753 18.7629C19.4377 18.7797 19.8755 18.9753 20.1967 19.3083C20.5179 19.6413 20.6975 20.0859 20.6976 20.5486C20.6978 21.0113 20.5185 21.456 20.1975 21.7893C19.8766 22.1225 19.4389 22.3183 18.9765 22.3355ZM21.2485 14.5135H4.2663V5.60613H21.2485V14.5135Z" />
</svg>
