<svg width="61" height="60" viewBox="0 0 61 60" fill="none" xmlns="http://www.w3.org/2000/svg">
<path d="M30.5 0C22.7579 0 15.3954 3.12675 9.5 9C-2.29071 20.7469 -2.29071 39.2531 9.5 51C21.2907 62.7469 39.7093 62.7469 51.5 51C63.2907 39.2531 63.2907 20.7469 51.5 9C45.6046 3.12675 38.2421 0 30.5 0ZM30.5 4C37.2019 4 43.3749 6.89389 48.5 12C58.7501 22.2122 58.7501 37.7878 48.5 48C38.2499 58.2122 22.7501 58.2122 12.5 48C2.24987 37.7878 2.24987 22.2122 12.5 12C17.6251 6.89389 23.7981 4 30.5 4ZM42.5 22C42.1156 22.0351 41.8045 21.7637 41.5 22L26.5 33L19.5 27C19.3141 26.8081 19.746 26.1054 19.5 26C19.254 25.8946 18.7677 26.0024 18.5 26C18.2323 25.9976 17.7478 25.899 17.5 26C17.2522 26.101 17.6893 26.8114 17.5 27C17.3107 27.1886 16.6013 26.7531 16.5 27C16.3987 27.2469 16.4976 27.7333 16.5 28C16.5024 28.2667 16.3942 28.7549 16.5 29C16.6058 29.2451 17.3073 28.8148 17.5 29L25.5 37C25.8426 37.3408 26.0171 37.9653 26.5 38C26.9829 38.0347 27.1119 38.2884 27.5 38L43.5 26C43.8421 25.7519 44.3681 25.4005 44.5 25C44.6319 24.5995 44.628 23.4018 44.5 23C44.372 22.5982 43.8397 22.2513 43.5 22C43.1603 21.7487 42.9231 22.006 42.5 22C42.5682 21.9965 42.4318 21.9965 42.5 22Z" fill="#F63868"/>
</svg>
