<svg width="39" height="50" viewBox="0 0 39 50" fill="none" xmlns="http://www.w3.org/2000/svg">
<path d="M8.5 50C7.96607 49.9992 7.87726 49.3752 7.5 49C7.12274 48.6248 6.5 48.5302 6.5 48V41H2.5C1.96635 41 1.87735 40.3747 1.5 40C1.12265 39.6253 0.5 39.5299 0.5 39C0.5 38.4701 1.12265 37.3747 1.5 37C1.87735 36.6253 1.96635 37 2.5 37H6.5V29H2.5C1.97955 28.9798 1.86103 28.3728 1.5 28C1.13897 27.6272 0.5 27.5172 0.5 27C0.5 26.4828 1.13897 25.3728 1.5 25C1.86103 24.6272 1.97955 25.0202 2.5 25H6.5V2C6.5 1.4698 7.12274 1.37519 7.5 1C7.87726 0.624809 7.96607 0.000808226 8.5 0H24.5C26.3868 -5.58366e-08 27.7569 0.283017 29.5 1C31.2431 1.71698 33.1659 2.67519 34.5 4C35.8341 5.32481 36.778 7.26905 37.5 9C38.222 10.7309 38.5 12.1264 38.5 14C38.5 15.8736 38.222 18.2691 37.5 20C36.778 21.7309 35.8341 22.6752 34.5 24C33.1659 25.3248 31.2431 26.283 29.5 27C27.7569 27.717 26.3868 29 24.5 29H10.5V37H24.5C25.0336 37 25.1227 36.6253 25.5 37C25.8773 37.3747 26.5 38.4701 26.5 39C26.5 39.5299 25.8773 39.6253 25.5 40C25.1227 40.3747 25.0336 41 24.5 41H10.5V48C10.4992 48.5297 10.8772 48.6255 10.5 49C10.1228 49.3745 9.0334 49.9992 8.5 50ZM10.5 25H24.5C27.2424 25 29.5608 23.9256 31.5 22C33.4392 20.0744 34.5 16.7232 34.5 14C34.5 11.2768 33.4392 8.92559 31.5 7C29.5608 5.07441 27.2424 4 24.5 4H10.5V25Z" fill="url(#paint0_linear_21_229)"/>
<defs>
<linearGradient id="paint0_linear_21_229" x1="5.28737" y1="0.401086" x2="45.2168" y2="37.8933" gradientUnits="userSpaceOnUse">
<stop stop-color="#FFD800"/>
<stop offset="1" stop-color="#FF6100"/>
</linearGradient>
</defs>
</svg>
