<svg width="50" height="60" viewBox="0 0 50 60" fill="none" xmlns="http://www.w3.org/2000/svg">
<g clip-path="url(#clip0_21_239)">
<path d="M24 60C22.0472 59.1605 20.9041 57.9489 19 57C9.99815 52.5168 3.38796 45.9013 1 36C0.160506 32.6069 0.085938 29.4971 2.68221e-07 26C-0.0870245 21.0123 -0.0139237 15.9877 2.68221e-07 11C2.68221e-07 9.69138 0.614565 9.06352 2 9.00002C3.48986 8.9189 5.52058 8.15876 7 8.00002C13.0569 7.35099 18.4782 5.17641 23 1.00002C22.7563 1.22578 23.2437 0.777801 23 1.00002C23.9921 0.0970224 24.9801 0.125241 26 1.00002C27.3019 2.11114 28.6076 3.01589 30 4.00002C33.4851 6.42184 37.8019 7.51007 42 8.00002C43.7405 8.22578 45.2595 8.91184 47 9.00002C48.7405 9.08821 49.9861 9.27162 50 11C50.0313 14.9471 50.0418 19.0564 50 23C50.0153 27.7176 49.1502 32.4287 48 37C45.525 46.3687 40.511 52.6614 32 57C29.9845 58.0265 27.0747 59.097 25 60H24ZM4 13C4 13.2152 4.00348 13.806 4 14C3.96867 16.5327 4.01044 18.4674 4 21C4 25.642 3.95222 30.4568 5 35C6.27404 40.5344 8.81933 45.1482 13 49C16.3069 52.0441 20.8402 54.448 25 56C24.8113 56.0848 25.1978 56.0597 25 56C27.1687 54.9736 29.9288 53.2064 32 52C36.4782 49.4564 39.7153 45.6586 42 41C44.287 36.3616 45.7772 32.1006 46 27C46.1949 22.5485 45.9826 17.4551 46 13C46 12.8095 46.0139 13.1729 46 13C44.4893 12.8272 42.4551 12.2011 41 12C35.2219 11.2394 30.4474 8.81464 26 5.00002C25.5127 4.5838 24.4769 4.59791 24 5.00002C19.7184 8.67978 14.5538 11.168 9 12C7.34305 12.2575 5.72657 12.7884 4 13Z" fill="url(#paint0_linear_21_239)"/>
<path d="M22 33C22.1201 32.8075 22.8517 32.1718 23 32C26.1691 28.8297 28.8261 26.1656 32 23C32.1974 22.767 32.728 22.1394 33 22C33.272 21.8606 33.6953 22.0243 34 22C34.4053 21.9617 34.6453 21.8006 35 22C35.3547 22.1994 35.8228 22.6342 36 23C36.2014 23.3532 36.0354 23.5951 36 24C35.9646 24.4049 36.2596 24.6869 36 25C35.853 25.1838 35.171 25.8382 35 26L24 37C22.7055 38.2922 21.2875 38.2957 20 37L15 32C14.7057 31.7342 14.1035 31.3825 14 31C13.8965 30.6175 13.8798 29.3776 14 29C14.098 28.6259 14.7138 28.2606 15 28C15.2862 27.7394 15.6178 28.0631 16 28C16.3697 27.9279 16.6444 27.8759 17 28C17.3555 28.1241 17.7559 28.7137 18 29C19.2474 30.2521 20.7408 30.7526 22 32C22.1344 32.1553 21.7276 32.7564 22 33Z" fill="url(#paint1_linear_21_239)"/>
</g>
<defs>
<linearGradient id="paint0_linear_21_239" x1="6.26596" y1="0.811943" x2="53.9786" y2="50.2782" gradientUnits="userSpaceOnUse">
<stop stop-color="#8668DB"/>
<stop offset="1" stop-color="#5A2BAF"/>
</linearGradient>
<linearGradient id="paint1_linear_21_239" x1="16.7118" y1="22.0311" x2="27.9293" y2="41.1718" gradientUnits="userSpaceOnUse">
<stop stop-color="#8668DB"/>
<stop offset="1" stop-color="#5A2BAF"/>
</linearGradient>
<clipPath id="clip0_21_239">
<rect width="50" height="60" fill="white"/>
</clipPath>
</defs>
</svg>
